<svg width="16" height="17" viewBox="0 0 16 17" fill="none" xmlns="http://www.w3.org/2000/svg">
<path fill-rule="evenodd" clip-rule="evenodd" d="M12.6016 4.6633V5.94108C14.0369 6.38909 15.0827 7.68841 15.0827 9.2403V13.3544C15.0827 15.2756 13.4899 16.8333 11.5262 16.8333H4.47335C2.50881 16.8333 0.916016 15.2756 0.916016 13.3544V9.2403C0.916016 7.68841 1.96264 6.38909 3.39709 5.94108V4.6633C3.40556 2.17895 5.46324 0.166626 7.98665 0.166626C10.5439 0.166626 12.6016 2.17895 12.6016 4.6633ZM8.00358 1.61583C9.72255 1.61583 11.1197 2.98222 11.1197 4.6633V5.76138H4.87896V4.64673C4.88742 2.97394 6.28461 1.61583 8.00358 1.61583ZM8.74028 12.2124C8.74028 12.6182 8.41004 12.9411 7.99511 12.9411C7.58866 12.9411 7.25841 12.6182 7.25841 12.2124V10.374C7.25841 9.97649 7.58866 9.65352 7.99511 9.65352C8.41004 9.65352 8.74028 9.97649 8.74028 10.374V12.2124Z" fill="#9E9E9E"/>
</svg>
